# xmcd CD database file
#
# Track frame offsets:
#	150
#	14606
#	31325
#	44042
#	58191
#	68785
#	85586
#	99785
#	120422
#	133301
#
# Disc length: 2003 seconds
#
# Revision: 2
# Processed by: cddbd v1.4PL0 Copyright (c) Steve Scherf et al.
# Submitted via: CDex 1.50Beta7
#
DISCID=8407d10a
DTITLE=Motorhead - Shoot You In The Back - The Early Years
DYEAR=1900
DGENRE=Blues
TTITLE0=Shoot You In The Back
TTITLE1=Waltz Of The Vampire
TTITLE2=Instro
TTITLE3=Fast And Loose
TTITLE4=Godzilla Akimbo
TTITLE5=Hump In Your Back
TTITLE6=I'm Your Witchdoctor
TTITLE7=Iron Horse
TTITLE8=Leavin' here
TTITLE9=Lost Johny
EXTD=
EXTT0=
EXTT1=
EXTT2=
EXTT3=
EXTT4=
EXTT5=
EXTT6=
EXTT7=
EXTT8=
EXTT9=
PLAYORDER=
